# xmcd
#
# Track frame offsets: 
#        150
#        19375
#        53008
#        72117
#        92297
#        110393
#        132300
#        149868
#        166248
#        188419
#        204527
#        228691
#        242303
#        261738
#        286485
#        302579
#        323893
#
# Disc length: 4519 seconds
#
# Revision: 0
# Processed by: cddbd v1.5.2PL0 Copyright (c) Steve Scherf et al.
# Submitted via: ExactAudioCopy v0.99pb1
#
DISCID=f511a511
DTITLE=Various Artist - DIG: Roots and More
DYEAR=2007
DGENRE=Bluegrass
TTITLE0=GoTan Project - Domingo
TTITLE1=Jeff Lang and Chris Whitley - Stagger Lee
TTITLE2=Bob Evans - Rocks In My Head
TTITLE3=Elvis Costello, Allison Toussaint - The River In Revers
TTITLE4=Mr Ward - Chinese Translation
TTITLE5=Anne McCue - Driving Down To Alvarado
TTITLE6=G. Love - Ain't That Right
TTITLE7=Holly Throsby - Making A Fire
TTITLE8=Bob Dylan - Someday baby (Album Version)
TTITLE9=Fruit - Wait On
TTITLE10=Brendan Gallagher - 412
TTITLE11=Ani DiFranco - Decree
TTITLE12=Ash Grunwald - Think Tank
TTITLE13=John Lee Hooker Jr. - You Blew It Baby
TTITLE14=Paul Greene - My Turn
TTITLE15=Eric Bibb - Troubadour
TTITLE16=Steve Tallis - If I Had A Ticket
EXTD=
EXTT0=
EXTT1=
EXTT2=
EXTT3=
EXTT4=
EXTT5=
EXTT6=
EXTT7=
EXTT8=
EXTT9=
EXTT10=
EXTT11=
EXTT12=
EXTT13=
EXTT14=
EXTT15=
EXTT16=
PLAYORDER=
